<svg width="1800.000000" height="169.217957" viewBox="0 0 1800 169.218" fill="none" xmlns="http://www.w3.org/2000/svg" xmlns:xlink="http://www.w3.org/1999/xlink">
	<desc>
			Created with Pixso.
	</desc>
	<defs/>
	<path id="architecture" d="M489.09 64.01L443.89 64.01C443.57 60.26 442.71 56.86 441.32 53.8C439.99 50.74 438.12 48.12 435.71 45.92C433.36 43.67 430.5 41.95 427.14 40.77C423.77 39.54 419.95 38.92 415.68 38.92C408.2 38.92 401.86 40.74 396.68 44.39C391.55 48.04 387.65 53.26 384.98 60.07C382.36 66.88 381.05 75.06 381.05 84.6Q381.05 99.72 385.06 109.94C387.78 116.69 391.71 121.79 396.84 125.22C401.97 128.6 408.14 130.29 415.36 130.29Q421.53 130.29 426.42 128.76C429.68 127.69 432.51 126.16 434.91 124.17C437.32 122.19 439.27 119.8 440.76 117.02C442.31 114.17 443.35 110.98 443.89 107.45L489.09 107.77C488.56 114.74 486.61 121.84 483.24 129.08C479.88 136.27 475.09 142.91 468.9 149.03C462.75 155.09 455.14 159.96 446.05 163.66C436.97 167.36 426.42 169.21 414.39 169.21C399.33 169.21 385.81 165.97 373.84 159.48C361.92 152.99 352.49 143.45 345.54 130.85Q335.2 111.95 335.2 84.6C335.2 66.27 338.73 50.82 345.78 38.28Q353.1 25.2 363.95 16.55L363.95 16.55Q368.79 12.7 374.32 9.73Q377.5 8 380.82 6.58Q396.2 0 414.39 0Q429.94 0 443.01 4.26C451.72 7.1 459.36 11.25 465.93 16.72C472.5 22.14 477.79 28.81 481.8 36.75C485.81 44.69 488.24 53.77 489.09 64.01ZM1192.88 64.01L1147.68 64.01C1147.35 60.26 1146.5 56.86 1145.11 53.8C1143.77 50.74 1141.9 48.12 1139.5 45.92C1137.15 43.67 1134.29 41.95 1130.92 40.77C1127.56 39.54 1123.74 38.92 1119.46 38.92C1111.98 38.92 1105.65 40.74 1100.47 44.39C1095.34 48.04 1091.43 53.26 1088.76 60.07C1086.15 66.88 1084.84 75.06 1084.84 84.6C1084.84 94.68 1086.17 103.13 1088.84 109.94C1091.56 116.69 1095.5 121.79 1100.63 125.22C1105.76 128.6 1111.93 130.29 1119.14 130.29C1123.26 130.29 1126.93 129.78 1130.19 128.76C1133.46 127.69 1136.29 126.16 1138.69 124.17Q1140.14 122.99 1141.36 121.6L1141.36 121.6L1141.37 121.6Q1143.19 119.53 1144.55 117.02C1146.1 114.17 1147.14 110.98 1147.68 107.45L1192.88 107.77C1192.35 114.74 1190.4 121.84 1187.03 129.08C1183.66 136.27 1178.88 142.91 1172.68 149.03C1166.54 155.09 1158.92 159.96 1149.84 163.66C1140.76 167.36 1130.19 169.21 1118.18 169.21C1103.11 169.21 1089.59 165.97 1077.62 159.48C1065.71 152.99 1056.28 143.45 1049.32 130.85C1042.43 118.25 1038.99 102.83 1038.99 84.6Q1038.99 57.1 1049.56 38.28C1056.62 25.68 1066.14 16.16 1078.1 9.73Q1081.28 8 1084.6 6.58L1084.6 6.58Q1099.98 0 1118.18 0C1128.55 0 1138.07 1.42 1146.79 4.26C1155.5 7.1 1163.14 11.25 1169.72 16.72Q1172.16 18.74 1174.37 20.98L1174.37 20.99Q1181.06 27.8 1185.59 36.75C1189.59 44.69 1192.03 53.77 1192.88 64.01ZM48.09 166.96L0 166.96L54.18 2.25L115.09 2.25L169.27 166.96L121.18 166.96L111.7 135.43L57.57 135.43L48.09 166.96ZM185.08 166.96L185.08 2.25L255.94 2.25C268.12 2.25 278.78 4.47 287.92 8.92C297.05 13.37 304.16 19.78 309.24 28.14C314.31 36.51 316.85 46.54 316.85 58.22C316.85 70.02 314.23 79.97 309 88.06C304.16 95.62 297.48 101.45 288.97 105.55L322.3 166.96L273.89 166.96L245.07 112.59L229.65 112.59L229.65 166.96L185.08 166.96ZM509.31 166.96L509.31 2.25L553.88 2.25L553.88 66.59L612.87 66.59L612.87 2.25L657.43 2.25L657.43 166.96L612.87 166.96L612.87 102.62L553.88 102.62L553.88 166.96L509.31 166.96ZM723.15 2.25L723.15 166.96L678.59 166.96L678.59 2.25L723.15 2.25ZM739.78 38.28L739.78 2.25L882.45 2.25L882.45 38.28L833.08 38.28L833.08 166.96L789.16 166.96L789.16 38.28L739.78 38.28ZM899.22 166.96L899.22 2.25L1017.53 2.25L1017.53 38.28L943.79 38.28L943.79 66.59L1011.44 66.59L1011.44 102.62L943.79 102.62L943.79 130.93L1017.21 130.93L1017.21 166.96L899.22 166.96ZM1208.61 38.28L1208.61 2.25L1351.28 2.25L1351.28 38.28L1301.9 38.28L1301.9 166.96L1257.98 166.96L1257.98 38.28L1208.61 38.28ZM1465.19 2.25L1509.75 2.25L1509.75 107.77C1509.75 120.31 1506.76 131.17 1500.78 140.34Q1498.56 143.74 1495.92 146.76Q1487.91 155.87 1475.93 161.49C1465.3 166.43 1452.95 168.89 1438.9 168.89C1424.74 168.89 1412.35 166.43 1401.71 161.49Q1389.73 155.87 1381.73 146.76Q1379.08 143.74 1376.87 140.34Q1376.18 139.28 1375.56 138.19L1375.55 138.17Q1368.05 125.12 1368.05 107.77L1368.05 2.25L1412.61 2.25L1412.61 103.91C1412.61 109 1413.73 113.56 1415.98 117.58C1418.22 121.55 1421.32 124.66 1425.28 126.91C1429.28 129.16 1433.83 130.29 1438.9 130.29C1444.03 130.29 1448.57 129.16 1452.53 126.91C1456.48 124.66 1459.58 121.55 1461.82 117.58C1464.07 113.56 1465.19 109 1465.19 103.91L1465.19 2.25ZM1530.93 166.96L1530.93 2.25L1601.79 2.25Q1620.06 2.25 1633.77 8.92Q1642.25 13.05 1648.4 19.43L1648.4 19.43Q1652.19 23.36 1655.09 28.14C1660.16 36.51 1662.7 46.54 1662.7 58.22C1662.7 70.02 1660.08 79.97 1654.85 88.06C1650.01 95.62 1643.33 101.45 1634.82 105.55L1668.15 166.96L1619.74 166.96L1590.92 112.59L1575.5 112.59L1575.5 166.96L1530.93 166.96ZM1681.7 166.96L1681.7 2.25L1800 2.25L1800 38.28L1726.26 38.28L1726.26 66.59L1793.91 66.59L1793.91 102.62L1726.26 102.62L1726.26 130.93L1799.68 130.93L1799.68 166.96L1681.7 166.96ZM229.65 77.85L245.36 77.85C250.59 77.85 255.05 77.2 258.74 75.92C262.48 74.58 265.34 72.46 267.32 69.56C269.35 66.67 270.36 62.89 270.36 58.22C270.36 53.51 269.35 49.67 267.32 46.72C265.34 43.72 262.48 41.52 258.74 40.13C255.05 38.68 250.59 37.96 245.36 37.96L229.65 37.96L229.65 77.85ZM1575.5 77.85L1591.21 77.85C1596.44 77.85 1600.91 77.2 1604.59 75.92C1608.33 74.58 1611.19 72.46 1613.17 69.56C1615.2 66.67 1616.21 62.89 1616.21 58.22C1616.21 53.51 1615.2 49.67 1613.17 46.72C1611.19 43.72 1608.33 41.52 1604.59 40.13C1600.91 38.68 1596.44 37.96 1591.21 37.96L1575.5 37.96L1575.5 77.85ZM101.63 101.98L85.28 47.61L83.99 47.61L67.64 101.98L101.63 101.98Z" fill="#D7DADE" fill-opacity="1.000000" fill-rule="evenodd"/>
</svg>
